<?xml version="1.0" standalone="no"?>
<!DOCTYPE svg PUBLIC "-//W3C//DTD SVG 20010904//EN"
 "http://www.w3.org/TR/2001/REC-SVG-20010904/DTD/svg10.dtd">
<svg version="1.0" xmlns="http://www.w3.org/2000/svg"
 width="100pt" height="100pt" viewBox="0 0 980.000000 980.000000"
 preserveAspectRatio="xMidYMid meet">

<g transform="translate(0.000000,980.000000) scale(0.1000,-0.1000)"
fill="#000000" stroke="none">
<path d="M4620 8096 c-343 -163 -549 -261 -865 -411 -176 -84 -599 -286 -940
-448 -341 -162 -668 -318 -727 -346 l-107 -51 -35 -73 c-19 -39 -40 -97 -46
-128 -18 -82 -8 -250 18 -318 21 -53 21 -54 2 -90 -69 -136 -67 -489 4 -646
21 -47 47 -69 346 -300 178 -138 330 -255 339 -261 16 -13 28 1 -202 -249
-162 -177 -212 -307 -209 -545 1 -74 3 -150 4 -169 3 -33 -2 -38 -112 -122
-140 -107 -214 -186 -268 -287 -78 -147 -103 -323 -67 -467 30 -119 128 -279
191 -313 24 -13 315 -109 974 -322 362 -117 594 -192 950 -309 118 -38 458
-148 755 -245 297 -96 680 -220 851 -275 170 -56 321 -101 335 -101 18 0 33
13 58 53 19 28 293 453 609 942 316 490 618 958 672 1040 450 693 494 764 484
789 -7 18 -35 30 -141 57 -55 14 -96 30 -100 39 -4 8 -8 98 -10 200 l-4 185
126 189 c69 104 125 197 125 207 0 28 -25 46 -76 54 -80 12 -79 16 3 52 503
222 493 216 472 254 -6 12 -52 40 -104 65 -51 24 -96 48 -100 54 -3 5 -9 47
-12 94 -10 140 22 336 83 504 l27 74 66 31 c100 48 95 58 -76 142 -78 39 -142
72 -142 75 0 3 48 41 106 85 58 43 108 85 110 93 8 20 -24 48 -83 72 l-54 22
0 57 c0 75 15 159 46 251 19 59 32 80 59 100 40 29 50 47 35 66 -14 16 -12 16
-1140 268 -1180 263 -1747 390 -1865 417 -71 16 -143 29 -160 29 -16 -1 -109
-38 -205 -84z m498 -71 c158 -36 328 -74 377 -85 50 -11 119 -27 155 -36 167
-38 299 -67 335 -74 65 -13 318 -70 350 -79 17 -6 127 -31 245 -56 118 -26
283 -62 365 -81 407 -94 444 -103 485 -110 56 -9 164 -35 169 -40 7 -8 -91 4
-140 17 -19 5 -98 18 -175 29 -120 18 -463 90 -834 174 -58 14 -199 45 -315
71 -115 25 -282 62 -370 82 -245 54 -458 101 -585 129 -63 13 -152 33 -198 44
-145 34 -159 32 -362 -63 -153 -71 -224 -104 -320 -149 -58 -28 -132 -62 -165
-78 -245 -114 -355 -165 -458 -214 -65 -31 -120 -56 -122 -56 -2 0 -51 -22
-107 -49 -57 -27 -143 -68 -193 -92 -90 -41 -150 -70 -360 -169 -60 -29 -126
-58 -145 -65 -19 -7 -72 -32 -118 -54 -45 -23 -85 -41 -87 -41 -3 0 -43 -18
-89 -40 -116 -54 -207 -92 -212 -88 -4 4 27 20 249 128 90 44 145 76 141 82
-4 7 -2 8 4 4 10 -6 110 30 122 44 3 3 31 17 62 31 32 14 56 28 53 31 -3 2 1
5 9 5 22 0 76 25 76 35 0 5 4 7 8 4 5 -3 39 11 76 29 37 19 73 35 81 35 7 0
20 6 27 13 7 7 48 28 91 47 42 18 77 37 77 42 0 4 6 8 14 8 12 0 76 29 438
203 70 33 125 64 122 69 -3 4 2 5 10 2 8 -3 37 6 63 19 26 14 98 49 158 77
225 106 275 132 269 141 -3 5 1 6 9 3 12 -4 376 162 394 180 11 11 30 7 321
-59z m-188 -175 c52 -10 113 -25 135 -33 22 -7 78 -21 125 -31 47 -10 114 -27
150 -37 36 -10 88 -23 115 -29 28 -5 75 -16 105 -25 30 -8 78 -19 105 -25 28
-5 68 -14 90 -20 22 -6 56 -15 75 -20 19 -5 69 -16 110 -25 41 -9 147 -35 235
-57 88 -22 180 -44 205 -48 25 -4 110 -24 190 -44 80 -21 188 -48 240 -61 109
-28 84 -32 -58 -10 -107 17 -292 54 -302 60 -4 2 -60 15 -126 29 -65 14 -166
36 -224 50 -58 13 -157 36 -220 51 -63 14 -153 35 -200 46 -47 11 -105 24
-130 30 -102 22 -211 49 -305 73 -280 74 -392 89 -480 65 -42 -12 -115 -44
-303 -135 -64 -32 -189 -92 -277 -135 -88 -42 -248 -121 -355 -173 l-195 -97
95 6 c52 3 210 12 350 20 140 8 350 22 465 30 116 8 244 14 285 14 l75 -2 -65
-8 c-36 -4 -207 -20 -380 -34 -173 -14 -394 -31 -490 -39 -96 -8 -231 -18
-300 -21 l-125 -8 -153 -73 c-84 -41 -183 -86 -220 -100 -37 -15 -87 -36 -112
-47 -98 -43 -133 -57 -137 -54 -3 4 505 259 862 432 310 150 988 484 1005 494
21 14 34 13 140 -9z m2879 -630 c-21 -83 -28 -194 -16 -256 l8 -41 -163 -118
c-90 -65 -185 -135 -213 -155 -120 -89 -456 -335 -785 -574 -195 -143 -377
-276 -405 -296 -192 -143 -838 -612 -850 -616 -9 -4 -15 0 -15 10 0 8 77 75
170 147 94 73 169 134 166 136 -2 2 -79 -50 -172 -115 -136 -96 -170 -116
-176 -103 -19 46 -11 53 265 253 595 431 1177 864 1177 874 0 4 -10 0 -22 -8
-13 -9 -48 -30 -78 -49 -74 -45 -310 -215 -1195 -860 -167 -122 -155 -116
-155 -82 1 23 13 37 70 78 38 27 67 51 64 54 -2 2 -30 -12 -61 -32 -32 -19
-59 -34 -60 -33 -1 1 0 11 3 23 4 13 12 19 23 16 24 -6 58 18 676 489 83 62
283 215 445 338 162 123 354 269 425 323 72 54 216 164 320 243 105 79 275
209 380 288 104 80 190 144 191 143 1 -1 -7 -36 -17 -77z m-2026 10 c-11 -5
-144 -18 -295 -30 -150 -11 -352 -27 -448 -35 -392 -32 -887 -54 -877 -38 4 6
48 13 99 17 51 3 138 11 193 16 200 20 561 45 800 56 77 4 201 10 275 14 201
10 279 10 253 0z m1467 -73 c-14 -12 -47 -40 -75 -62 -27 -22 -54 -45 -60 -51
-5 -5 -28 -23 -50 -39 -22 -16 -49 -37 -59 -47 -10 -9 -70 -54 -134 -100 -63
-46 -153 -111 -201 -146 -47 -34 -104 -74 -126 -89 -22 -14 -42 -29 -45 -33
-3 -3 -66 -50 -140 -103 -74 -53 -205 -148 -290 -212 -178 -132 -403 -295
-427 -310 -9 -5 -26 -18 -37 -28 -12 -10 -52 -39 -91 -65 -38 -25 -83 -58 -99
-73 -58 -54 -64 -55 -162 -16 -49 20 -156 61 -239 92 -82 31 -258 99 -390 151
-132 52 -265 104 -295 115 -30 12 -82 32 -115 44 -33 13 -184 72 -335 130
-462 179 -502 195 -600 235 -52 22 -138 56 -190 75 -194 74 -355 144 -346 152
3 3 11 1 18 -5 7 -5 29 -15 48 -20 19 -6 60 -20 90 -32 30 -12 60 -23 65 -24
6 -2 21 -8 35 -13 14 -6 61 -22 105 -37 44 -15 114 -40 155 -56 41 -16 118
-45 170 -64 52 -19 158 -58 235 -87 77 -29 169 -63 205 -76 36 -14 92 -35 125
-48 33 -13 141 -53 240 -90 99 -37 248 -93 330 -125 83 -32 220 -83 305 -115
136 -50 247 -93 370 -140 99 -38 107 -39 155 -8 25 15 45 31 45 36 0 4 6 7 14
7 8 0 16 4 18 8 3 8 120 96 308 230 63 45 152 109 198 142 45 33 87 60 92 60
6 0 10 4 10 8 0 4 12 15 28 24 15 9 36 24 47 33 11 8 65 48 120 87 55 39 156
112 225 164 69 51 181 133 250 182 69 49 124 95 122 101 -1 7 2 10 8 6 6 -4
56 26 112 67 191 137 263 187 273 187 5 1 -1 -9 -15 -22z m-2185 -82 c-24 -10
-315 -35 -389 -34 -68 1 -75 3 -46 10 60 15 471 37 435 24z m615 -54 c0 -5
-48 -12 -107 -16 -60 -4 -148 -11 -198 -16 -113 -12 -502 -24 -494 -16 10 12
268 37 464 46 290 12 335 12 335 2z m-615 -172 c-52 -11 -402 -24 -393 -14 10
10 174 22 313 22 91 1 110 -1 80 -8z m-2269 -382 c363 -140 751 -289 864 -332
113 -43 255 -97 315 -121 211 -81 1111 -426 1230 -471 66 -25 121 -46 122 -47
2 -1 -3 -17 -9 -34 -9 -23 -17 -31 -28 -26 -40 17 -336 114 -345 114 -5 -1 71
-34 170 -73 155 -63 180 -76 183 -96 2 -13 0 -27 -5 -32 -5 -5 -111 32 -248
87 -805 323 -1642 647 -1657 642 -14 -5 1739 -719 1895 -771 12 -5 17 -17 17
-47 0 -22 -2 -40 -5 -40 -4 0 -293 112 -774 301 -219 86 -285 102 -99 24 99
-41 401 -170 528 -225 25 -11 117 -49 205 -84 113 -45 161 -69 164 -81 2 -13
-2 -17 -15 -13 -11 3 -235 87 -499 188 -264 100 -628 238 -810 307 -381 144
-1488 570 -1745 671 l-174 68 -9 40 c-5 21 -6 66 -2 99 8 80 45 205 60 205 7
0 309 -114 671 -253z m5151 87 c-1 -1 -72 -32 -157 -69 -85 -37 -189 -82 -230
-100 -41 -18 -129 -57 -195 -85 -66 -29 -164 -72 -218 -96 -102 -46 -142 -57
-95 -26 15 9 125 92 245 183 120 91 263 200 317 241 l99 75 118 -60 c65 -34
117 -62 116 -63z m-123 -161 c-8 -21 -27 -83 -40 -138 -40 -157 -44 -425 -8
-518 5 -15 43 2 -796 -360 -300 -129 -651 -281 -780 -337 -129 -56 -359 -155
-510 -220 -151 -65 -475 -204 -720 -310 -770 -332 -863 -371 -877 -366 -7 3
-13 15 -13 26 0 11 -1 22 -2 25 -2 3 56 32 127 64 72 32 207 93 300 136 94 42
188 85 210 95 446 202 526 249 190 110 -259 -107 -455 -192 -664 -289 -96 -45
-175 -80 -177 -79 -1 2 -4 16 -6 31 -3 28 1 31 187 118 104 49 196 96 205 104
8 9 -57 -14 -145 -50 -239 -99 -252 -104 -259 -98 -3 4 -6 23 -6 43 l0 36 103
43 c109 46 543 230 926 393 231 98 235 99 277 88 47 -13 28 -23 186 91 36 26
130 74 223 114 371 157 693 303 673 305 -9 0 -343 -133 -538 -215 -190 -80
-188 -79 -170 -62 8 8 170 131 360 274 190 143 429 323 531 400 117 88 207
148 240 161 52 19 777 332 949 409 39 18 41 16 24 -24z m-5798 -173 l30 -11
-24 -92 c-21 -82 -23 -108 -19 -247 3 -127 8 -166 26 -216 25 -71 -16 -35 436
-377 165 -125 354 -268 420 -319 66 -50 174 -133 240 -183 66 -50 237 -181
380 -290 466 -357 546 -415 569 -415 12 0 98 34 191 76 94 42 211 93 260 114
145 60 351 148 480 205 66 29 149 65 185 80 36 15 99 42 140 60 41 18 161 70
265 115 105 45 218 95 253 111 35 16 66 29 69 29 3 0 51 20 107 44 160 71 382
166 641 276 132 56 254 108 270 115 46 21 412 180 787 341 42 18 89 39 105 47
25 13 31 12 56 -3 l27 -17 -107 -46 c-156 -66 -612 -265 -652 -284 -19 -8 -64
-28 -100 -43 -36 -16 -109 -47 -161 -70 -52 -23 -140 -61 -195 -85 -55 -24
-167 -73 -250 -110 -82 -37 -213 -94 -290 -127 -195 -85 -274 -119 -395 -173
-58 -26 -130 -57 -160 -70 -30 -12 -134 -57 -230 -100 -96 -42 -242 -106 -325
-142 -82 -36 -188 -83 -235 -103 -47 -20 -148 -65 -225 -98 -77 -33 -227 -99
-332 -145 l-193 -85 -122 97 c-68 53 -190 148 -273 211 -82 63 -152 117 -155
120 -3 4 -50 40 -105 81 -55 41 -198 151 -318 245 -121 93 -274 212 -342 264
-820 633 -750 574 -774 645 -33 99 -44 189 -38 324 5 118 30 261 47 261 4 0
20 -5 36 -10z m232 -87 c83 -33 159 -70 180 -88 41 -35 466 -355 1122 -843
239 -179 445 -332 457 -342 20 -16 21 -21 12 -49 -6 -17 -13 -31 -15 -31 -3 0
-33 22 -67 48 -34 26 -96 72 -137 102 -41 29 -108 78 -147 107 -40 30 -73 52
-73 49 0 -6 375 -312 397 -325 11 -6 13 -17 8 -40 -3 -17 -10 -31 -13 -31 -4
0 -61 42 -127 93 -175 135 -518 394 -605 456 -41 30 -91 66 -109 80 -19 14
-32 20 -28 14 11 -18 418 -343 705 -562 131 -101 162 -129 162 -149 0 -16 -4
-22 -14 -19 -7 3 -83 57 -167 119 -206 153 -425 308 -433 308 -9 0 207 -171
444 -351 147 -113 165 -129 167 -158 1 -17 -1 -31 -4 -31 -6 0 -43 27 -283
210 -455 348 -938 705 -945 699 -7 -8 509 -411 1052 -822 175 -134 181 -139
185 -178 2 -21 1 -39 -3 -39 -3 0 -26 15 -50 33 -109 83 -199 147 -199 143 0
-3 61 -58 135 -122 74 -64 135 -122 135 -131 0 -17 -7 -12 -277 193 -296 225
-583 433 -548 397 21 -22 419 -337 621 -491 189 -145 234 -185 220 -199 -2 -2
-118 83 -257 190 -140 106 -367 278 -504 383 -138 104 -367 278 -510 387 -143
108 -348 264 -455 345 -191 144 -195 148 -209 197 -22 80 -21 353 3 438 10 37
21 67 24 67 4 0 71 -26 150 -57z m802 -313 c201 -78 399 -155 440 -170 41 -16
210 -81 375 -145 165 -64 363 -140 440 -170 346 -133 430 -167 437 -174 4 -4
-77 -40 -180 -80 -103 -41 -248 -98 -323 -127 -74 -30 -141 -54 -148 -54 -8 0
-75 46 -151 103 -75 56 -240 178 -366 272 -333 246 -771 574 -829 620 -28 22
-62 48 -75 58 -21 15 -22 17 -5 14 11 -3 184 -69 385 -147z m112 60 c53 -15
309 -110 323 -120 6 -5 33 -15 60 -23 28 -8 84 -29 125 -47 41 -17 83 -29 93
-26 11 2 16 2 13 -1 -6 -6 68 -43 87 -43 6 0 29 -8 51 -19 23 -10 82 -33 131
-51 50 -18 108 -40 130 -50 22 -9 61 -25 87 -34 26 -10 51 -22 55 -28 4 -7 1
-9 -8 -6 -8 3 -97 33 -199 68 -102 35 -186 67 -188 71 -2 5 -11 9 -20 9 -19 0
-107 32 -118 43 -4 4 -14 7 -22 7 -8 0 -28 7 -45 14 -18 8 -63 26 -102 40
-145 51 -310 118 -313 126 -2 5 -10 6 -18 3 -8 -3 -14 0 -14 6 0 6 -7 11 -16
11 -8 0 -36 9 -62 20 -64 28 -111 52 -90 46 9 -3 36 -10 60 -16z m1195 -456
c-3 -3 -12 -4 -19 -1 -8 3 -5 6 6 6 11 1 17 -2 13 -5z m2467 -560 c-53 -153
-145 -423 -206 -599 -190 -554 -348 -1015 -395 -1155 -25 -74 -48 -138 -52
-142 -4 -4 -90 10 -191 33 -102 22 -342 73 -535 114 -459 97 -1658 352 -1950
415 -126 27 -401 86 -610 130 -479 102 -430 89 -411 108 13 14 28 12 143 -11
70 -14 328 -67 573 -117 245 -50 609 -124 810 -165 201 -40 475 -96 610 -124
322 -66 1250 -255 1414 -287 102 -21 130 -24 136 -13 8 13 38 94 220 614 56
160 113 322 127 360 13 39 74 212 135 385 60 173 125 356 143 405 18 50 47
131 65 180 45 124 59 159 65 153 3 -2 -38 -130 -91 -284z m-1771 185 c103 -40
187 -75 187 -78 0 -3 -89 -43 -198 -88 -108 -45 -305 -128 -437 -184 -422
-178 -568 -239 -575 -239 -3 0 -7 16 -8 35 -3 41 -48 16 388 213 335 152 380
173 380 177 0 9 -470 -181 -655 -264 -49 -22 -95 -41 -101 -41 -7 0 -9 10 -7
25 4 19 17 29 57 44 100 38 400 181 393 187 -2 3 -100 -36 -218 -84 -118 -49
-216 -88 -218 -86 -2 2 -1 18 3 36 6 30 13 36 79 62 105 42 228 98 224 103 -2
2 -63 -18 -136 -43 -124 -44 -163 -50 -130 -21 8 8 122 55 254 107 132 51 303
119 380 151 77 32 142 58 145 59 3 0 89 -32 193 -71z m1727 -106 c-68 -196
-161 -459 -408 -1153 -99 -278 -191 -535 -203 -572 -13 -38 -27 -68 -31 -68
-15 0 -8 80 12 131 27 68 19 88 -10 24 -44 -95 -31 -25 19 107 85 227 172 471
168 474 -2 2 -53 -116 -113 -262 l-109 -266 -9 61 c-9 60 -8 63 44 181 29 66
51 122 48 125 -2 3 -22 -29 -44 -70 -21 -41 -42 -75 -45 -75 -3 0 -2 29 3 65
7 53 20 84 64 158 50 84 45 88 -13 11 l-23 -29 21 55 c11 30 28 69 38 85 17
28 21 30 74 27 49 -2 58 1 71 20 13 21 114 296 301 818 42 118 82 230 88 248
8 24 23 38 52 52 22 10 45 19 52 19 7 1 -12 -67 -47 -166z m-140 74 c0 -1 -45
-126 -101 -277 -55 -151 -113 -313 -129 -360 -35 -101 -127 -350 -132 -355 -1
-2 -37 3 -78 11 -41 8 -331 62 -645 119 -313 58 -583 108 -599 113 -26 7 -18
13 110 69 77 34 258 114 404 178 146 64 312 137 370 162 57 24 122 53 145 63
68 31 609 267 625 273 17 6 30 8 30 4z m-3908 -100 c50 -40 254 -199 363 -282
28 -21 41 -35 30 -32 -11 3 -166 31 -345 63 -179 32 -327 59 -329 60 -5 4 212
233 221 234 4 0 31 -19 60 -43z m4606 -465 l32 -93 -237 -367 c-130 -202 -387
-599 -571 -882 -284 -436 -503 -776 -720 -1115 -62 -98 -94 -145 -98 -145 -2
0 -8 9 -14 21 -10 17 3 44 88 187 163 274 161 284 -6 34 l-110 -163 -12 35
c-13 41 -18 31 80 160 71 93 333 476 360 525 28 54 -12 5 -147 -176 -260 -352
-306 -413 -315 -413 -41 0 57 157 350 558 146 199 447 623 461 650 24 46 0 18
-99 -114 -56 -75 -103 -134 -105 -132 -12 11 46 134 95 203 115 161 314 460
296 446 -9 -8 -39 -44 -66 -80 -191 -259 -240 -324 -240 -316 0 4 18 58 39
120 32 91 57 140 134 256 122 187 409 622 606 919 l156 235 6 -130 c5 -110 11
-144 37 -223z m-4928 203 c0 -2 -14 -26 -30 -52 -52 -82 -72 -162 -77 -308 -6
-159 15 -263 79 -391 33 -67 39 -87 29 -97 -15 -15 -39 13 -80 100 -45 93 -62
166 -68 293 -7 162 25 300 97 413 25 39 50 61 50 42z m481 -85 l384 -71 60
-46 c387 -301 711 -543 726 -543 11 0 148 56 306 125 159 69 320 140 358 156
l70 30 440 -80 c242 -44 546 -98 675 -121 129 -24 236 -44 238 -45 2 -2 -8
-25 -21 -52 -14 -26 -33 -74 -43 -105 -10 -32 -21 -58 -24 -58 -4 0 -76 16
-161 34 -382 86 -831 170 -873 164 -12 -2 114 -31 279 -66 165 -35 403 -86
528 -115 213 -48 228 -53 222 -72 -3 -11 -8 -62 -12 -112 -4 -57 -10 -93 -17
-93 -6 0 -101 18 -211 40 -515 102 -902 171 -870 155 6 -3 138 -32 295 -64
157 -33 379 -80 493 -105 115 -25 231 -48 258 -52 l49 -7 0 -64 0 -64 -37 7
c-21 3 -121 23 -223 44 -230 48 -659 122 -674 117 -6 -2 43 -14 109 -27 66
-12 237 -49 380 -82 143 -32 304 -67 357 -76 l98 -16 8 -41 c7 -34 5 -40 -9
-43 -9 -2 -101 11 -203 28 -103 17 -192 30 -198 28 -6 -2 88 -24 208 -49 l218
-44 10 -33 c5 -18 7 -34 5 -37 -3 -2 -23 0 -44 6 -37 8 -584 119 -1895 384
-1706 345 -1654 334 -1674 357 -27 33 -62 106 -88 184 -20 60 -23 88 -23 219
1 125 4 160 22 212 26 79 79 163 102 163 10 0 191 -32 402 -70z m-11 -1108
c2450 -765 2728 -851 2768 -860 33 -7 34 -15 12 -66 -21 -49 -26 -52 -80 -35
-55 16 -263 59 -268 55 -3 -4 222 -78 281 -92 15 -3 29 -9 31 -13 2 -3 -1 -33
-8 -66 -14 -70 5 -69 -195 -14 -79 21 -149 39 -155 38 -6 0 66 -26 159 -58
l170 -58 3 -78 c2 -64 0 -77 -11 -72 -34 13 -275 85 -307 92 -61 13 -30 -1
135 -60 88 -32 168 -62 178 -67 15 -8 25 -58 11 -58 -3 0 -191 61 -418 135
-227 74 -416 135 -421 135 -21 0 13 -14 166 -69 90 -32 234 -83 319 -114 85
-31 202 -71 260 -91 93 -30 107 -38 122 -67 10 -18 16 -35 14 -36 -2 -2 -61
12 -131 32 -69 20 -129 35 -131 32 -3 -3 54 -25 128 -49 122 -40 168 -63 168
-87 0 -11 0 -11 -240 67 -102 33 -327 106 -500 162 -173 56 -445 144 -605 195
-159 52 -621 200 -1025 330 -404 130 -798 257 -875 282 -77 24 -198 63 -270
85 -150 47 -162 57 -197 162 -20 61 -23 91 -23 216 0 112 4 158 18 205 28 92
59 156 71 152 6 -3 387 -122 846 -265z m3240 -563 c27 -6 50 -13 50 -16 0 -3
-65 -91 -143 -197 -79 -105 -195 -264 -256 -353 -62 -90 -115 -163 -117 -163
-2 0 -4 24 -4 53 0 48 4 57 54 119 70 87 238 322 266 373 28 51 14 35 -106
-121 -136 -178 -204 -258 -204 -243 0 29 29 122 43 138 22 25 32 45 19 37 -13
-8 -15 4 -6 28 5 13 16 15 53 10 l46 -5 114 175 c63 97 120 176 127 176 7 0
36 -5 64 -11z"/>
<path d="M6160 5848 c-209 -142 -510 -363 -510 -375 0 -6 10 0 160 100 149 99
454 332 428 326 -2 0 -37 -23 -78 -51z"/>
<path d="M3150 6020 c8 -5 51 -22 95 -36 44 -15 179 -65 300 -112 253 -97 476
-174 483 -167 11 11 -387 164 -674 259 -201 66 -233 74 -204 56z"/>
<path d="M7220 5911 c-264 -88 -650 -242 -882 -351 -16 -7 -28 -16 -28 -20 0
-4 60 17 133 45 72 29 202 78 287 110 276 104 622 244 637 258 10 10 9 10
-147 -42z"/>
<path d="M6580 5283 c-169 -59 -989 -411 -1015 -435 -26 -25 851 334 998 408
55 28 65 44 17 27z"/>
<path d="M6045 5170 c-121 -45 -219 -84 -630 -253 -392 -161 -749 -317 -741
-324 12 -12 1023 395 1406 567 63 28 116 53 119 55 13 14 -38 -1 -154 -45z"/>
<path d="M6664 3348 c-68 -76 -584 -858 -584 -885 0 -37 310 418 528 775 45
72 80 132 78 132 -1 0 -11 -10 -22 -22z"/>
<path d="M4527 3920 c11 -11 826 -177 953 -195 220 -31 163 -11 -162 55 -286
58 -459 90 -751 139 -27 5 -45 5 -40 1z"/>
<path d="M3842 3855 c3 -4 129 -33 280 -65 150 -32 302 -66 338 -74 88 -20
352 -66 376 -65 23 1 12 4 -266 68 -359 83 -748 155 -728 136z"/>
<path d="M3620 3717 c0 -10 332 -86 1025 -233 258 -55 529 -104 564 -103 65 2
-521 134 -1174 264 -337 67 -415 81 -415 72z"/>
<path d="M2660 3046 c0 -6 21 -12 675 -216 127 -39 394 -125 594 -191 200 -66
366 -118 368 -115 2 2 -17 12 -44 22 -26 9 -133 50 -238 89 -280 106 -698 238
-1144 359 -217 60 -211 58 -211 52z"/>
<path d="M4270 2771 c51 -30 818 -255 847 -249 19 4 -319 110 -617 195 -220
62 -260 71 -230 54z"/>
<path d="M3960 2736 c0 -3 100 -37 223 -77 122 -39 416 -134 652 -211 237 -77
465 -151 508 -165 43 -14 80 -23 83 -21 16 16 -486 187 -1052 358 -400 121
-414 125 -414 116z"/>
<path d="M3452 2677 c31 -24 1334 -454 1344 -444 12 12 -909 328 -1187 407
-79 22 -151 43 -159 45 -11 4 -11 2 2 -8z"/>
</g>
</svg>
